<svg xmlns="http://www.w3.org/2000/svg" viewBox="0 0 896 896"><defs><style>.a{fill:#989898;}</style></defs><title>icon-gear</title><path class="a" d="M447.94,286C358.53,286,286,358.53,286,448s72.53,162.06,161.94,162.06S609.38,537.37,609.38,448,537.38,286,447.94,286ZM772.62,541.06l-29.18,70.31L795.5,713.62l6.87,13.5-72.18,72.19L611.75,743.38l-70.31,28.87L505.75,881.5,501.19,896h-102L355,772.69l-70.31-29L182.28,795.63l-13.5,6.75L96.63,730.25l55.87-118.5-29-70.25L14.47,505.88,0,501.19v-102L123.41,355l29-70.19L100.47,182.34l-6.85-13.43,72.07-72.07,118.59,55.85,70.22-29L390.16,14.47,394.75,0h102l44.19,123.47,70.12,29,102.44-52,13.62-6.84,72.13,72.06-55.87,118.4,28.87,70.35,109.37,35.66L896,394.75V496.69Z"/></svg>